<svg xmlns="http://www.w3.org/2000/svg" viewBox="0 0 100 100">
    <defs>
        <linearGradient id="g" x1="0%" y1="0%" x2="100%" y2="100%">
            <stop offset="0%" stop-color="#1a3c40" />
            <stop offset="100%" stop-color="#2a9d8f" />
        </linearGradient>
        <clipPath id="r">
            <rect width="100" height="100" rx="22" ry="22" />
        </clipPath>
    </defs>
    <rect width="100" height="100" rx="22" ry="22" fill="url(#g)" />
    <g clip-path="url(#r)" transform="translate(22, 18)" fill="white">
        <path
            d="M128 0c17.7 0 32 14.3 32 32V64H288V32c0-17.7 14.3-32 32-32s32 14.3 32 32V64h48c26.5 0 48 21.5 48 48v48H0V112C0 85.5 21.5 64 48 64H96V32c0-17.7 14.3-32 32-32zM0 192H448V464c0 26.5-21.5 48-48 48H48c-26.5 0-48-21.5-48-48V192zM329 305c9.4-9.4 9.4-24.6 0-33.9s-24.6-9.4-33.9 0l-95 95-47-47c-9.4-9.4-24.6-9.4-33.9 0s-9.4 24.6 0 33.9l64 64c9.4 9.4 24.6 9.4 33.9 0L329 305z"
            transform="scale(0.123)" />
    </g>
</svg>